<svg xmlns="http://www.w3.org/2000/svg" width="980" height="640" viewBox="0 0 980 640">
<defs><style>.title{font:700 28px Arial;fill:#06263A}.sub{font:400 14px Arial;fill:#1B2A41}</style></defs>
<rect x="0" y="0" width="980" height="640" fill="#D9F0FF"/>
<text x="60" y="58" class="title">Cromwell's Beach 2026 Replay Heatmap</text>
<text x="60" y="84" class="sub">Post-incident surveillance update view (timeline-separated from pre-incident runs)</text>
<rect x="60" y="110" width="44" height="44" fill="#78aaa5" rx="4"/>
<rect x="106" y="110" width="44" height="44" fill="#78aaa5" rx="4"/>
<rect x="152" y="110" width="44" height="44" fill="#78aaa5" rx="4"/>
<rect x="198" y="110" width="44" height="44" fill="#78aaa5" rx="4"/>
<rect x="244" y="110" width="44" height="44" fill="#78aaa5" rx="4"/>
<rect x="290" y="110" width="44" height="44" fill="#78aaa5" rx="4"/>
<rect x="336" y="110" width="44" height="44" fill="#78aaa5" rx="4"/>
<rect x="382" y="110" width="44" height="44" fill="#78aaa5" rx="4"/>
<rect x="428" y="110" width="44" height="44" fill="#78aaa5" rx="4"/>
<rect x="60" y="156" width="44" height="44" fill="#78aaa5" rx="4"/>
<rect x="106" y="156" width="44" height="44" fill="#78aaa5" rx="4"/>
<rect x="152" y="156" width="44" height="44" fill="#78aaa5" rx="4"/>
<rect x="198" y="156" width="44" height="44" fill="#78aaa5" rx="4"/>
<rect x="244" y="156" width="44" height="44" fill="#78aaa5" rx="4"/>
<rect x="290" y="156" width="44" height="44" fill="#78aaa5" rx="4"/>
<rect x="336" y="156" width="44" height="44" fill="#78aaa5" rx="4"/>
<rect x="382" y="156" width="44" height="44" fill="#78aaa5" rx="4"/>
<rect x="428" y="156" width="44" height="44" fill="#78aaa5" rx="4"/>
<rect x="60" y="202" width="44" height="44" fill="#78aaa5" rx="4"/>
<rect x="106" y="202" width="44" height="44" fill="#78aaa5" rx="4"/>
<rect x="152" y="202" width="44" height="44" fill="#78aaa5" rx="4"/>
<rect x="198" y="202" width="44" height="44" fill="#78aaa5" rx="4"/>
<rect x="244" y="202" width="44" height="44" fill="#78aaa5" rx="4"/>
<rect x="290" y="202" width="44" height="44" fill="#78aaa5" rx="4"/>
<rect x="336" y="202" width="44" height="44" fill="#78aaa5" rx="4"/>
<rect x="382" y="202" width="44" height="44" fill="#78aaa5" rx="4"/>
<rect x="428" y="202" width="44" height="44" fill="#78aaa5" rx="4"/>
<rect x="60" y="248" width="44" height="44" fill="#78aaa5" rx="4"/>
<rect x="106" y="248" width="44" height="44" fill="#78aaa5" rx="4"/>
<rect x="152" y="248" width="44" height="44" fill="#78aaa5" rx="4"/>
<rect x="198" y="248" width="44" height="44" fill="#78aaa5" rx="4"/>
<rect x="244" y="248" width="44" height="44" fill="#78aaa5" rx="4"/>
<rect x="290" y="248" width="44" height="44" fill="#78aaa5" rx="4"/>
<rect x="336" y="248" width="44" height="44" fill="#78aaa5" rx="4"/>
<rect x="382" y="248" width="44" height="44" fill="#78aaa5" rx="4"/>
<rect x="428" y="248" width="44" height="44" fill="#78aaa5" rx="4"/>
<rect x="60" y="294" width="44" height="44" fill="#78aaa5" rx="4"/>
<rect x="106" y="294" width="44" height="44" fill="#78aaa5" rx="4"/>
<rect x="152" y="294" width="44" height="44" fill="#78aaa5" rx="4"/>
<rect x="198" y="294" width="44" height="44" fill="#78aaa5" rx="4"/>
<rect x="244" y="294" width="44" height="44" fill="#78aaa5" rx="4"/>
<rect x="290" y="294" width="44" height="44" fill="#78aaa5" rx="4"/>
<rect x="336" y="294" width="44" height="44" fill="#78aaa5" rx="4"/>
<rect x="382" y="294" width="44" height="44" fill="#78aaa5" rx="4"/>
<rect x="428" y="294" width="44" height="44" fill="#78aaa5" rx="4"/>
<rect x="60" y="340" width="44" height="44" fill="#78aaa5" rx="4"/>
<rect x="106" y="340" width="44" height="44" fill="#78aaa5" rx="4"/>
<rect x="152" y="340" width="44" height="44" fill="#78aaa5" rx="4"/>
<rect x="198" y="340" width="44" height="44" fill="#78aaa5" rx="4"/>
<rect x="244" y="340" width="44" height="44" fill="#78aaa5" rx="4"/>
<rect x="290" y="340" width="44" height="44" fill="#78aaa5" rx="4"/>
<rect x="336" y="340" width="44" height="44" fill="#78aaa5" rx="4"/>
<rect x="382" y="340" width="44" height="44" fill="#78aaa5" rx="4"/>
<rect x="428" y="340" width="44" height="44" fill="#78aaa5" rx="4"/>
<rect x="60" y="386" width="44" height="44" fill="#78aaa5" rx="4"/>
<rect x="106" y="386" width="44" height="44" fill="#78aaa5" rx="4"/>
<rect x="152" y="386" width="44" height="44" fill="#78aaa5" rx="4"/>
<rect x="198" y="386" width="44" height="44" fill="#78aaa5" rx="4"/>
<rect x="244" y="386" width="44" height="44" fill="#78aaa5" rx="4"/>
<rect x="290" y="386" width="44" height="44" fill="#78aaa5" rx="4"/>
<rect x="336" y="386" width="44" height="44" fill="#78aaa5" rx="4"/>
<rect x="382" y="386" width="44" height="44" fill="#78aaa5" rx="4"/>
<rect x="428" y="386" width="44" height="44" fill="#78aaa5" rx="4"/>
<rect x="60" y="432" width="44" height="44" fill="#78aaa5" rx="4"/>
<rect x="106" y="432" width="44" height="44" fill="#78aaa5" rx="4"/>
<rect x="152" y="432" width="44" height="44" fill="#78aaa5" rx="4"/>
<rect x="198" y="432" width="44" height="44" fill="#78aaa5" rx="4"/>
<rect x="244" y="432" width="44" height="44" fill="#78aaa5" rx="4"/>
<rect x="290" y="432" width="44" height="44" fill="#78aaa5" rx="4"/>
<rect x="336" y="432" width="44" height="44" fill="#78aaa5" rx="4"/>
<rect x="382" y="432" width="44" height="44" fill="#78aaa5" rx="4"/>
<rect x="428" y="432" width="44" height="44" fill="#78aaa5" rx="4"/>
<rect x="60" y="478" width="44" height="44" fill="#78aaa5" rx="4"/>
<rect x="106" y="478" width="44" height="44" fill="#78aaa5" rx="4"/>
<rect x="152" y="478" width="44" height="44" fill="#78aaa5" rx="4"/>
<rect x="198" y="478" width="44" height="44" fill="#78aaa5" rx="4"/>
<rect x="244" y="478" width="44" height="44" fill="#78aaa5" rx="4"/>
<rect x="290" y="478" width="44" height="44" fill="#78aaa5" rx="4"/>
<rect x="336" y="478" width="44" height="44" fill="#78aaa5" rx="4"/>
<rect x="382" y="478" width="44" height="44" fill="#78aaa5" rx="4"/>
<rect x="428" y="478" width="44" height="44" fill="#78aaa5" rx="4"/>
<text x="60" y="580" class="sub">Range: 13.0 to 13.0 surveillance priority score</text>
<text x="60" y="602" class="sub">AI1SAD replay output for operational review only; not attack prediction.</text>
</svg>